<svg aria-hidden="true" style="position:absolute;width:0;height:0" xmlns="http://www.w3.org/2000/svg" overflow="hidden"><defs><symbol id="agree" viewBox="0 0 42 32"><path stroke-width=".64" d="M4.061 15.085l-.253-.242-3.807 3.606 13.413 12.796 28.18-26.883L37.812.754 13.414 24.007l-9.353-8.922z"/></symbol><symbol id="mail" viewBox="0 0 43 32"><path d="M37.328 0h-32c-2.2 0-3.98 1.8-3.98 4l-.02 24c0 2.2 1.8 4 4 4h32c2.2 0 4-1.8 4-4V4c0-2.2-1.8-4-4-4zm-.8 8.5l-14.14 8.84c-.64.4-1.48.4-2.12 0L6.128 8.5c-.5-.32-.8-.86-.8-1.44 0-1.34 1.46-2.14 2.6-1.44l13.4 8.38 13.4-8.38c1.14-.7 2.6.1 2.6 1.44 0 .58-.3 1.12-.8 1.44z"/></symbol><symbol id="person" viewBox="0 0 32 32"><path d="M16 16c4.42 0 8-3.58 8-8s-3.58-8-8-8-8 3.58-8 8 3.58 8 8 8zm0 4c-5.34 0-16 2.68-16 8v2c0 1.1.9 2 2 2h28c1.1 0 2-.9 2-2v-2c0-5.32-10.66-8-16-8z"/></symbol><symbol id="phone" viewBox="0 0 32 32"><path d="M28.298 21.225l-4.525-.517a3.545 3.545 0 00-2.922 1.015l-3.278 3.278A26.8 26.8 0 015.834 13.262L9.13 9.966a3.545 3.545 0 001.015-2.921l-.517-4.489A3.566 3.566 0 006.083-.597H3.001C.988-.597-.686 1.077-.562 3.09c.944 15.213 13.111 27.362 28.306 28.306 2.013.125 3.687-1.55 3.687-3.563v-3.082c.018-1.799-1.336-3.313-3.135-3.527z"/></symbol></defs></svg>